<?xml version="1.0" encoding="utf-8"?>
<!-- Generator: Adobe Illustrator 27.5.0, SVG Export Plug-In . SVG Version: 6.00 Build 0)  -->
<svg version="1.1" xmlns="http://www.w3.org/2000/svg" xmlns:xlink="http://www.w3.org/1999/xlink" x="0px" y="0px"
	 viewBox="0 0 2000 2000" style="enable-background:new 0 0 2000 2000;" xml:space="preserve">
<g id="BACKGROUND">
	<rect x="-6.5" y="-6.5" style="fill:#F7F5F0;" width="2013" height="2013"/>
</g>
<g id="OBJECTS">
	<g>
		<linearGradient id="SVGID_1_" gradientUnits="userSpaceOnUse" x1="1000.0002" y1="1056.3163" x2="1000.0002" y2="545.0566">
			<stop  offset="0" style="stop-color:#276889"/>
			<stop  offset="1" style="stop-color:#B2D6CD"/>
		</linearGradient>
		<path style="fill:url(#SVGID_1_);" d="M1266.832,587.632c-56.924-56.767-149.547-56.767-206.471,0l-60.476,60.309l-60.244-60.078
			c-56.925-56.767-149.548-56.767-206.472,0c-27.542,27.466-42.71,64.041-42.711,102.987c0,38.946,15.168,75.521,42.695,102.972
			l65.254,65.377c0.34,0.519,0.736,1.012,1.191,1.469c0.457,0.458,0.951,0.857,1.472,1.199l27.469,27.521
			c0.252,0.334,0.521,0.66,0.825,0.965c0.306,0.307,0.633,0.578,0.968,0.832l28.797,28.852l0,0l0,0l0.003,0.003
			c0.088,0.088,0.183,0.164,0.274,0.248c0.14,0.13,0.278,0.264,0.424,0.383c0.094,0.077,0.193,0.141,0.289,0.214
			c0.151,0.114,0.299,0.232,0.455,0.335c0.115,0.076,0.237,0.14,0.355,0.21c0.143,0.085,0.282,0.177,0.428,0.253
			c0.143,0.076,0.292,0.137,0.438,0.204c0.126,0.058,0.25,0.124,0.378,0.176c0.154,0.063,0.312,0.111,0.469,0.165
			c0.125,0.043,0.248,0.094,0.374,0.131c0.16,0.047,0.322,0.08,0.484,0.119c0.126,0.03,0.251,0.068,0.379,0.093
			c0.162,0.031,0.326,0.048,0.489,0.071c0.129,0.018,0.257,0.043,0.387,0.056c0.162,0.016,0.325,0.017,0.487,0.024
			c0.132,0.006,0.263,0.019,0.395,0.019c0.003,0,0.005,0,0.007,0c0.17,0,0.34-0.015,0.51-0.024c0.122-0.007,0.243-0.006,0.365-0.017
			c0.164-0.016,0.326-0.046,0.489-0.07c0.129-0.019,0.259-0.031,0.387-0.056c0.15-0.029,0.298-0.072,0.448-0.109
			c0.138-0.034,0.278-0.061,0.415-0.101c0.141-0.041,0.278-0.097,0.417-0.145c0.142-0.049,0.286-0.092,0.426-0.149
			c0.126-0.051,0.247-0.115,0.371-0.172c0.149-0.068,0.3-0.13,0.445-0.206c0.114-0.06,0.223-0.132,0.335-0.197
			c0.15-0.087,0.303-0.169,0.449-0.265c0.11-0.072,0.213-0.157,0.32-0.235c0.142-0.103,0.287-0.2,0.424-0.311
			c0.119-0.097,0.23-0.208,0.346-0.312c0.117-0.106,0.239-0.204,0.352-0.317l66.973-66.788c16.933-16.887,44.486-16.887,61.42,0
			c8.179,8.156,12.683,19.02,12.683,30.589s-4.504,22.433-12.683,30.59l-66.974,66.788c-0.004,0.004-0.008,0.009-0.012,0.013
			c-0.002,0.002-0.004,0.003-0.006,0.005c-0.068,0.068-0.126,0.143-0.192,0.213c-0.148,0.158-0.298,0.315-0.433,0.48
			c-0.071,0.088-0.132,0.181-0.2,0.271c-0.118,0.156-0.24,0.311-0.347,0.473c-0.07,0.107-0.129,0.219-0.194,0.328
			c-0.091,0.151-0.187,0.3-0.268,0.455c-0.064,0.122-0.115,0.248-0.174,0.372c-0.069,0.148-0.144,0.293-0.205,0.443
			c-0.055,0.135-0.096,0.273-0.144,0.41c-0.051,0.144-0.107,0.286-0.151,0.432c-0.043,0.144-0.072,0.291-0.107,0.437
			c-0.034,0.142-0.076,0.282-0.103,0.425c-0.029,0.148-0.044,0.297-0.065,0.446c-0.021,0.143-0.048,0.285-0.061,0.429
			c-0.014,0.148-0.015,0.297-0.022,0.446c-0.007,0.145-0.02,0.29-0.02,0.436c0,0.145,0.013,0.29,0.02,0.435
			c0.007,0.149,0.008,0.298,0.022,0.447c0.014,0.142,0.041,0.284,0.061,0.425c0.021,0.15,0.037,0.301,0.065,0.45
			c0.027,0.139,0.067,0.275,0.1,0.412c0.036,0.15,0.067,0.302,0.111,0.45c0.04,0.136,0.094,0.269,0.14,0.403
			c0.051,0.146,0.096,0.295,0.154,0.439c0.055,0.135,0.123,0.266,0.185,0.399c0.065,0.139,0.123,0.281,0.195,0.418
			c0.069,0.132,0.152,0.259,0.229,0.388c0.078,0.132,0.149,0.267,0.234,0.395c0.085,0.128,0.183,0.25,0.274,0.374
			c0.091,0.124,0.175,0.25,0.273,0.37c0.099,0.121,0.211,0.235,0.317,0.352c0.102,0.113,0.197,0.23,0.305,0.338
			c0.003,0.003,0.007,0.005,0.01,0.008s0.005,0.006,0.008,0.009l59.532,59.367c0.116,0.115,0.239,0.216,0.359,0.324
			c0.111,0.099,0.217,0.206,0.331,0.299c0.125,0.102,0.257,0.19,0.386,0.285c0.12,0.088,0.236,0.182,0.359,0.263
			c0.136,0.09,0.278,0.166,0.418,0.247c0.122,0.072,0.241,0.15,0.365,0.215c0.154,0.081,0.313,0.147,0.471,0.219
			c0.116,0.052,0.228,0.112,0.345,0.16c0.18,0.073,0.364,0.13,0.547,0.192c0.099,0.033,0.196,0.073,0.295,0.103
			c0.187,0.055,0.378,0.096,0.567,0.139c0.099,0.023,0.196,0.053,0.296,0.072c0.208,0.04,0.419,0.065,0.629,0.091
			c0.082,0.01,0.164,0.027,0.246,0.035c0.293,0.028,0.588,0.042,0.882,0.042c0.294,0,0.588-0.014,0.88-0.042
			c0.001,0,0.001,0,0.002,0c0.093-0.009,0.185-0.028,0.278-0.04c0.199-0.025,0.399-0.048,0.597-0.086
			c0.114-0.022,0.226-0.056,0.34-0.083c0.175-0.041,0.35-0.077,0.523-0.128c0.118-0.035,0.232-0.082,0.349-0.122
			c0.165-0.056,0.332-0.107,0.494-0.173c0.113-0.046,0.223-0.104,0.335-0.155c0.161-0.073,0.325-0.141,0.483-0.224
			c0.104-0.055,0.202-0.121,0.304-0.179c0.161-0.093,0.324-0.181,0.48-0.285c0.09-0.059,0.175-0.13,0.263-0.193
			c0.162-0.116,0.326-0.228,0.483-0.356c0.073-0.06,0.141-0.13,0.214-0.193c0.16-0.139,0.322-0.275,0.474-0.427l260.743-260.024
			c27.543-27.466,42.711-64.041,42.711-102.987C1309.543,651.673,1294.374,615.098,1266.832,587.632z M708.86,690.85
			c0-34.021,13.248-65.968,37.303-89.957c49.759-49.622,130.723-49.622,180.483,0l60.208,60.042l-16.735,16.689l-60.244-60.078
			c-40.511-40.4-106.428-40.4-146.941,0c-19.633,19.579-30.445,45.612-30.445,73.303c0,27.692,10.812,53.725,30.445,73.303
			l60.208,60.042l-16.875,16.828l-60.104-60.217C722.108,756.818,708.86,724.871,708.86,690.85z M1114.274,862.858
			c-1.439-10.028-3.908-19.802-7.352-29.201l100.377-99.418c11.667-11.634,18.092-27.126,18.092-43.621
			c0-16.494-6.425-31.985-18.091-43.619c-24.098-24.032-63.309-24.034-87.432,0.023l-99.726,100.14
			c-8.574-3.125-17.382-5.428-26.305-6.9l109.284-109.916c33.346-33.255,87.604-33.255,120.951,0
			c16.145,16.101,25.037,37.506,25.037,60.273c0,22.766-8.891,44.172-25.037,60.273L1114.274,862.858z M1073.061,780.867
			c-10.557-10.527-22.343-19.098-34.899-25.721l94.724-95.117c16.932-16.886,44.486-16.888,61.42,0
			c8.178,8.156,12.683,19.02,12.683,30.589c0,11.57-4.504,22.433-12.661,30.568l-95.42,94.508
			C1092.174,803.02,1083.51,791.287,1073.061,780.867z M1018.931,766.428c0.024,0.01,0.048,0.021,0.072,0.03
			c14.939,6.199,28.931,15.34,41.065,27.44c11.829,11.796,21.037,25.519,27.349,40.465c0.148,0.437,0.32,0.868,0.536,1.283
			c6.177,15.09,9.418,31.395,9.418,48.208c0,34.014-13.242,65.955-37.287,89.942l-60.491,60.325l-16.736-16.69l60.44-60.273
			c19.633-19.578,30.445-45.611,30.445-73.303c0-27.692-10.812-53.725-30.445-73.304c-40.511-40.4-106.429-40.4-146.94,0
			l-60.392,60.225l-16.697-16.728l21.702-21.642c0.696-0.399,1.356-0.886,1.95-1.482c0.581-0.583,1.058-1.228,1.45-1.909
			l26.366-26.293c0.696-0.399,1.356-0.886,1.949-1.482c0.581-0.582,1.057-1.227,1.45-1.908l2.118-2.112
			c0.002-0.002,0.004-0.003,0.006-0.005l3.348-3.339C917.212,756.392,972.627,747.248,1018.931,766.428z M866.59,780.867
			l-0.652,0.65l-60.244-60.078c-8.179-8.156-12.683-19.019-12.683-30.589c0-11.569,4.504-22.433,12.683-30.59
			c16.933-16.887,44.486-16.888,61.42,0l60.208,60.042l-60.711,60.543C866.604,780.853,866.597,780.86,866.59,780.867z
			 M940.353,707.308l-60.244-60.078c-24.099-24.032-63.311-24.032-87.409,0c-11.667,11.635-18.091,27.126-18.091,43.621
			c0,16.494,6.425,31.985,18.091,43.619l60.208,60.042l-16.735,16.689l-60.244-60.078c-16.145-16.101-25.037-37.506-25.037-60.273
			c0-22.767,8.892-44.172,25.037-60.273c33.347-33.255,87.605-33.254,120.951,0l60.208,60.042L940.353,707.308z M1013.531,927.474
			c11.665-11.634,18.091-27.125,18.091-43.62c0-16.494-6.425-31.985-18.091-43.62c-24.099-24.033-63.31-24.033-87.409,0
			l-60.461,60.294l-16.696-16.728l60.386-60.219c33.347-33.255,87.604-33.255,120.951,0c16.145,16.101,25.037,37.506,25.037,60.273
			s-8.891,44.172-25.037,60.272l-60.476,60.31l-16.735-16.689L1013.531,927.474z M1253.838,780.576l-143.576,143.18
			c3.291-11.622,5.145-23.723,5.46-36.09L1237.1,763.888c19.61-19.575,30.411-45.594,30.411-73.269
			c0-27.692-10.812-53.725-30.445-73.304c-40.512-40.4-106.428-40.4-146.967,0.028L969.845,738.292
			c-13.497-0.002-26.992,1.856-40.07,5.554l15.377-15.335c0.695-0.399,1.354-0.885,1.947-1.48c0.58-0.582,1.056-1.226,1.448-1.905
			l26.37-26.297c0.696-0.399,1.354-0.886,1.948-1.481c0.58-0.582,1.056-1.227,1.449-1.906l26.37-26.297
			c0.695-0.398,1.353-0.885,1.946-1.48c0.58-0.582,1.056-1.226,1.448-1.905l65.276-65.096c49.759-49.622,130.723-49.622,180.483,0
			c24.055,23.988,37.302,55.936,37.302,89.956C1291.14,724.64,1277.892,756.587,1253.838,780.576z"/>
		<g>
			<g>
				
					<text transform="matrix(1 0 0 1 253.0889 1324.3228)" style="fill:#276889; font-family:'BigShouldersDisplay-Black'; font-size:227.8589px;">DOCTOR SMITH</text>
			</g>
			<g>
				
					<text transform="matrix(1 0 0 1 591.4588 1431.6694)" style="fill:#276889; font-family:'WorkSans-Medium'; font-size:69.0638px;">HEART CARE PROFESSIONAL</text>
			</g>
		</g>
	</g>
</g>
</svg>
